<?xml version="1.0" encoding="utf-8"?>
<!-- Generator: Adobe Illustrator 27.0.0, SVG Export Plug-In . SVG Version: 6.00 Build 0)  -->
<svg version="1.1" id="Layer_1" xmlns="http://www.w3.org/2000/svg" xmlns:xlink="http://www.w3.org/1999/xlink" x="0px" y="0px"
	 viewBox="0 0 288 560" style="enable-background:new 0 0 288 560;" xml:space="preserve">
<style type="text/css">
	.st0{fill:#FFFFFF;}
</style>
<path class="st0" d="M-164.89-673.95c-1.94,0-3.86,0.11-5.74,0.34c-13.48,1.08-22.95,7.01-29.94,15.18
	c-0.04,0.03-0.07,0.07-0.09,0.1c-0.51,0.54-0.99,1.09-1.47,1.65c-1.6-3.89-3.18-7.78-4.77-11.67c-0.98-2.38-2.52-3.4-5.04-3.34
	c-3.49,0.08-6.99,0.02-10.49,0.01h-13.36c0.44,1.82,0.55,2.92,0.96,3.9c5.84,14.11,11.52,28.29,17.42,42.37
	c-1.53,4.31-2.93,8.46-4.34,12.21c-6.5,17.27-15.13,40.21-19,50.47l-0.87,2.33l-0.41,1.1c-0.07,0.2-0.14,0.39-0.21,0.56h28.33
	c0.23-0.64,0.54-1.53,0.97-2.76l0.16-0.43c1-2.85,2.59-7.38,5.12-14.58c0.67-1.71,1.36-3.41,2.05-5.11
	c0.34-0.82,0.51-1.56,0.56-2.26c1.16-3.26,2.28-6.37,3.36-9.31c0.13,0.15,0.26,0.3,0.39,0.44c8.93,10.03,21.93,16.33,36.41,16.33
	c1.93,0,3.82-0.11,5.69-0.33c12.64-1.23,24.93-7.24,33.58-18.35c6.5-8.36,9.62-19.05,9.48-29.74c0.01-0.12,0.01-0.23,0.01-0.35
	C-116.13-652.12-137.96-673.95-164.89-673.95z M-164.89-600.91c-13.41,0-24.28-10.87-24.28-24.28v-0.13
	c0.07-13.34,10.91-24.14,24.28-24.14c13.4,0,24.27,10.87,24.27,24.27C-140.62-611.78-151.49-600.91-164.89-600.91z"/>
<g>
	<path class="st0" d="M-43.72-651.49v-21.33h-61.3v95.81h61.3v-21.34h-34.66v-17.26h30.58v-20.25h-30.58v-15.63H-43.72z"/>
	<path class="st0" d="M51.28-649.86c-4.08-7.24-9.9-12.88-17.47-16.92c-7.56-4.03-16.37-6.04-26.43-6.04h-37.92v95.81H7.38
		c9.97,0,18.73-2.06,26.3-6.18c7.56-4.12,13.41-9.81,17.53-17.06s6.18-15.49,6.18-24.73C57.39-634.32,55.36-642.61,51.28-649.86z
		 M23.69-606.91c-4.44,4.26-10.56,6.39-18.35,6.39H-3.9v-49.2h9.24c7.79,0,13.91,2.15,18.35,6.46c4.44,4.3,6.66,10.39,6.66,18.28
		C30.35-617.19,28.13-611.17,23.69-606.91z"/>
	<path class="st0" d="M126.03-614.38c6.88-2.09,12.11-5.6,15.69-10.54c3.58-4.93,5.37-10.67,5.37-17.19c0-5.8-1.36-11.03-4.07-15.7
		c-2.72-4.66-6.76-8.33-12.1-11.01c-5.35-2.67-11.87-4-19.57-4h-42v95.81h26.64v-35.33h2.85l19.03,35.33h29.77L126.03-614.38z
		 M117.33-633.14c-1.82,1.72-4.53,2.58-8.16,2.58H95.99v-19.98h13.18c3.54,0,6.23,0.89,8.09,2.65c1.86,1.77,2.79,4.2,2.79,7.28
		C120.05-637.35,119.14-634.86,117.33-633.14z"/>
	<path class="st0" d="M247.67-650.6c-4.35-7.48-10.27-13.3-17.74-17.47c-7.48-4.16-15.74-6.25-24.8-6.25
		c-8.97,0-17.22,2.09-24.74,6.25c-7.52,4.17-13.48,9.99-17.87,17.47c-4.4,7.47-6.59,15.92-6.59,25.34c0,9.43,2.19,17.88,6.59,25.35
		c4.39,7.48,10.35,13.32,17.87,17.53c7.52,4.22,15.77,6.32,24.74,6.32c8.97,0,17.21-2.1,24.73-6.32
		c7.52-4.21,13.46-10.05,17.81-17.53c4.34-7.47,6.52-15.92,6.52-25.35C254.19-634.68,252.01-643.13,247.67-650.6z M221.23-607.45
		c-3.94,4.44-9.31,6.66-16.1,6.66c-6.89,0-12.28-2.2-16.18-6.59c-3.89-4.4-5.84-10.35-5.84-17.88c0-7.61,1.95-13.61,5.84-18
		c3.9-4.4,9.29-6.6,16.18-6.6c6.79,0,12.16,2.2,16.1,6.6c3.94,4.39,5.91,10.39,5.91,18C227.14-617.83,225.17-611.89,221.23-607.45z"
		/>
</g>
<polyline class="st0" points="-242.24,-558.74 -242.03,-559.3 -241.62,-560.4 -240.75,-562.73 -217.41,-625.41 "/>
<line class="st0" x1="-213.91" y1="-558.74" x2="-242.24" y2="-558.74"/>
</svg>
